PathFileType	4	(X/Y/Z)	/Users/gattia/Dropbox/phd_data/bike_study/processing_scripts/../mocap_collections/p017/static_002_dig-bike_study_lower_sept.17.2019_static_func_knee_and_ankle/marker_data.trc
DataRate	CameraRate	NumFrames	NumMarkers	Units	OrigDataRate	OrigDataStartFrame	OrigNumFrames
112.5	112.5	4	107	mm	112.5	170	339
Frame#	Time	Head_Front			Head_R			Head_L			Head_back			Head_top			Arm_R_1			Arm_R_2			Arm_R_3			Arm_R_4			Elbow_R_Lat			Elbow_R_Med			Forearm_R_1			Forearm_R_2			Forearm_R_3			Forearm_R_4			Rad_styl_R			Ul_styl_R			Dig_R_1			Dig_R_3			Dig_R_5			Arm_L_1			Arm_L_2			Arm_L_3			Arm_L_4			Elbow_L_Lat			Elbow_L_Med			Forearm_L_1			Forearm_L_2			Forearm_L_3			Forearm_L_4			Rad_styl_L			Ul_styl_L			Dig_L_1			Dig_L_3			Dig_L_5			xiphoid			sternal_notch			Acr_R			Acr_L			C7			T8			ASIS_R			ASIS_L			PSIS_R			PSIS_L			GT_R			Thigh_R_1			Thigh_R_2			Thigh_R_3			Thigh_R_4			Knee_R_L_Cond			Knee_R_M_Cond			GT_L			Thigh_L_1			Thigh_L_2			Thigh_L_3			Thigh_L_4			Knee_L_L_Cond			Knee_L_M_Cond			Tib_Tib_R			Shank_R_1			Shank_R_2			Shank_R_3			Shank_R_4			Ankle_R_L_Mal			Ankle_R_M_Mal			Tib_Tub_L			Shank_L_1			Shank_L_2			Shank_L_3			Shank_L_4			Ankle_L_L_Mal			Ankle_L_M_Mal			Foot_R_MH_1_Top			Foot_R_MH_5_Top			Foot_R_Calc			Foot_R_Center			Foot_L_MH_1_Top			Foot_L_MH_5_Top			Foot_L_Calc			Foot_L_Center			right_hjc			left_hjc			mid_hjc			mid_pelvis			mid_asis			mid_psis			right_kjc			left_kjc			right_ajc			left_ajc			right_met_1_floor			left_met_1_floor			right_met_5_floor			left_met_5_floor			right_calc_floor			left_calc_floor			right_mid_met_floor			left_mid_met_floor			right_ajc_floor			left_ajc_floor			right_sjc			left_sjc			right_ejc			left_ejc			right_wjc			left_wjc			
		X1	Y1	Z1	X2	Y2	Z2	X3	Y3	Z3	X4	Y4	Z4	X5	Y5	Z5	X6	Y6	Z6	X7	Y7	Z7	X8	Y8	Z8	X9	Y9	Z9	X10	Y10	Z10	X11	Y11	Z11	X12	Y12	Z12	X13	Y13	Z13	X14	Y14	Z14	X15	Y15	Z15	X16	Y16	Z16	X17	Y17	Z17	X18	Y18	Z18	X19	Y19	Z19	X20	Y20	Z20	X21	Y21	Z21	X22	Y22	Z22	X23	Y23	Z23	X24	Y24	Z24	X25	Y25	Z25	X26	Y26	Z26	X27	Y27	Z27	X28	Y28	Z28	X29	Y29	Z29	X30	Y30	Z30	X31	Y31	Z31	X32	Y32	Z32	X33	Y33	Z33	X34	Y34	Z34	X35	Y35	Z35	X36	Y36	Z36	X37	Y37	Z37	X38	Y38	Z38	X39	Y39	Z39	X40	Y40	Z40	X41	Y41	Z41	X42	Y42	Z42	X43	Y43	Z43	X44	Y44	Z44	X45	Y45	Z45	X46	Y46	Z46	X47	Y47	Z47	X48	Y48	Z48	X49	Y49	Z49	X50	Y50	Z50	X51	Y51	Z51	X52	Y52	Z52	X53	Y53	Z53	X54	Y54	Z54	X55	Y55	Z55	X56	Y56	Z56	X57	Y57	Z57	X58	Y58	Z58	X59	Y59	Z59	X60	Y60	Z60	X61	Y61	Z61	X62	Y62	Z62	X63	Y63	Z63	X64	Y64	Z64	X65	Y65	Z65	X66	Y66	Z66	X67	Y67	Z67	X68	Y68	Z68	X69	Y69	Z69	X70	Y70	Z70	X71	Y71	Z71	X72	Y72	Z72	X73	Y73	Z73	X74	Y74	Z74	X75	Y75	Z75	X76	Y76	Z76	X77	Y77	Z77	X78	Y78	Z78	X79	Y79	Z79	X80	Y80	Z80	X81	Y81	Z81	X82	Y82	Z82	X83	Y83	Z83	X84	Y84	Z84	X85	Y85	Z85	X86	Y86	Z86	X87	Y87	Z87	X88	Y88	Z88	X89	Y89	Z89	X90	Y90	Z90	X91	Y91	Z91	X92	Y92	Z92	X93	Y93	Z93	X94	Y94	Z94	X95	Y95	Z95	X96	Y96	Z96	X97	Y97	Z97	X98	Y98	Z98	X99	Y99	Z99	X100	Y100	Z100	X101	Y101	Z101	X102	Y102	Z102	X103	Y103	Z103	X104	Y104	Z104	X105	Y105	Z105	X106	Y106	Z106	X107	Y107	Z107	

170	  1.502222	346.984689	1787.501736	319.206460	158.269015	1757.235188	374.179730	240.980918	1755.562907	180.123517	106.471498	1694.591845	267.222335	219.674817	1857.665680	285.989388	108.421847	1327.938024	513.252531	115.353033	1350.639917	547.979397	114.272303	1327.335721	563.558297	107.210854	1303.708922	528.621599	106.196952	1237.310053	596.840546	179.540799	1210.829811	562.745639	107.500208	1139.923885	698.211542	143.456677	1115.393627	675.975789	147.902769	1101.202417	699.714452	111.648730	1124.984742	720.836000	163.143762	1127.011235	824.040960	129.267804	1064.467791	791.147642	177.990040	1126.004422	889.174025	114.478734	1059.420625	889.169018	123.976257	1023.991129	859.038117	185.925583	1339.063080	-36.483703	148.952032	1333.520180	-17.480372	146.502511	1309.216103	-30.328143	182.917945	1314.294987	-50.189791	140.502964	1228.002948	-58.870907	190.294868	1195.741470	 -5.614542	155.668539	1169.170693	-170.612578	166.393452	1128.544326	-145.147363	174.439901	1115.791000	-168.933681	164.106449	1156.298400	-193.987729	235.643157	1145.706879	-287.085878	204.458051	1078.530255	-258.552578	283.690864	1136.658541	-350.652805	217.814320	1075.482182	-374.408802	221.548113	1035.228323	-347.414976	314.491886	1294.713922	278.128655	275.440000	1490.778231	279.574549	159.173269	1534.270705	444.003717	197.521890	1527.260342	 77.769431	138.451059	1554.613386	275.811674	 93.520822	1362.823757	273.028365	278.007013	1032.563345	416.557584	291.468851	1024.876902	145.988817	 98.582294	1066.752419	323.804933	102.753354	1072.257336	203.614207	204.789552	950.606899	464.978147	185.191517	779.221662	471.087000	227.833398	776.503874	475.782896	225.868398	746.158502	475.565634	183.112753	747.558681	471.252859	193.705898	521.971663	440.462189	229.830968	496.109937	349.810103	206.766496	923.359538	 89.632516	239.728406	784.058583	 84.872795	197.432217	779.816392	 86.626312	200.423576	748.710005	 86.193065	242.955975	752.625271	 84.292436	220.946587	512.109732	128.679928	240.108046	493.556417	225.044595	223.685505	447.697474	402.393889	105.299449	422.716564	442.148979	144.748072	413.424413	457.648115	137.200482	383.797898	458.770205	 97.442321	393.221796	443.657952	109.220433	126.639214	427.087790	146.599572	131.594662	347.450202	238.233299	441.940187	176.235865	157.211577	423.692610	110.966898	117.283596	430.701044	127.600061	111.007909	401.346510	126.102436	149.896815	394.339300	108.426414	116.718776	121.372783	144.000670	156.297917	124.358073	218.467596	276.136962	 57.419011	391.332613	215.742812	 51.439036	488.360765	 62.239863	 68.768417	357.666563	155.899038	 61.167112	460.665917	301.619784	 52.663622	164.179396	242.097084	 49.947025	 63.170557	 81.274031	 64.676955	209.150443	169.077850	 64.117371	 99.351486	218.408888	961.755138	367.723927	227.294426	956.681671	189.133965	222.851657	959.218404	278.428946	192.702878	1049.112500	272.491385	284.737932	1028.720123	281.273201	100.667824	1069.504877	263.709570	201.174445	510.359091	395.136146	208.465584	492.736473	176.862261	127.910002	129.116938	387.268996	136.508346	122.865428	181.234133	276.136962	  0.000000	391.332613	301.619784	  0.000000	164.179396	215.742812	  0.000000	488.360765	242.097084	  0.000000	 63.170557	 62.239863	  0.000000	357.666563	 81.274031	  0.000000	209.150443	245.939887	  0.000000	439.846689	271.858434	  0.000000	113.674977	127.910002	  0.000000	387.268996	136.508346	  0.000000	181.234133	159.173269	1465.270705	444.003717	197.521890	1458.260342	 77.769431	142.868876	1224.069932	579.793092	165.398916	1211.872209	-32.242724	146.205783	1095.739513	807.594301	220.050604	1112.118567	-272.819228
171	  1.511111	347.008973	1787.507790	319.151595	158.300389	1757.253511	374.153885	240.987045	1755.542772	180.087884	106.489414	1694.589570	267.214437	219.694108	1857.666818	285.937227	108.420281	1327.952618	513.248141	115.353187	1350.654966	547.973469	114.270523	1327.351556	563.552821	107.208381	1303.723986	528.617626	106.187161	1237.326488	596.835854	179.533740	1210.841873	562.748651	107.478245	1139.942548	698.209008	143.435195	1115.409781	675.977694	147.878804	1101.219388	699.717316	111.622852	1125.004213	720.833491	163.109848	1127.031506	824.043030	129.236727	1064.487398	791.148410	177.946974	1126.026857	889.178036	114.434333	1059.445191	889.166999	123.936065	1024.013375	859.038817	185.941776	1339.054305	-36.475709	148.966467	1333.518121	-17.474135	146.515380	1309.212391	-30.318941	182.932828	1314.284097	-50.177541	140.509296	1227.995649	-58.847622	190.296259	1195.738666	 -5.583213	155.672719	1169.142500	-170.576484	166.390584	1128.519536	-145.102549	174.435684	1115.759746	-168.888153	164.109108	1156.265311	-193.948875	235.649754	1145.644964	-287.042869	204.453835	1078.478062	-258.498282	283.701799	1136.576892	-350.604565	217.819118	1075.403339	-374.358526	221.540639	1035.157679	-347.351524	314.487039	1294.718215	278.121130	275.463801	1490.786031	279.567399	159.187555	1534.280951	443.995786	197.546526	1527.269756	 77.754613	138.462045	1554.617746	275.803110	 93.527060	1362.830263	273.020814	278.011413	1032.566787	416.566032	291.469432	1024.874595	146.001032	 98.583159	1066.756572	323.820435	102.751253	1072.259499	203.629678	204.793118	950.608710	464.990027	185.197262	779.223137	471.099204	227.838101	776.505279	475.794979	225.879211	746.179329	475.646825	183.117346	747.559619	471.265484	193.708409	521.971926	440.469781	229.831205	496.111833	349.818872	206.760660	923.358241	 89.647805	239.724983	784.057726	 84.888121	197.429460	779.814662	 86.642796	200.419932	748.709126	 86.207674	242.952512	752.624686	 84.307509	220.945901	512.109153	128.689727	240.113423	493.555129	225.053109	223.687375	447.698207	402.400540	105.302351	422.715534	442.154212	144.751173	413.423361	457.653156	137.203971	383.796662	458.773238	 97.445324	393.220619	443.662711	109.221726	126.638814	427.087907	146.599432	131.595104	347.451620	238.235653	441.939191	176.242963	157.210381	423.693435	110.975675	117.282684	430.702018	127.608790	111.006063	401.347775	126.110252	149.895278	394.340911	108.432985	116.718842	121.373100	144.001522	156.300137	124.357302	218.468164	276.137503	 57.418613	391.333034	215.744539	 51.438367	488.360013	 62.239795	 68.768779	357.667129	155.900354	 61.166653	460.664911	301.621091	 52.663011	164.179287	242.096867	 49.946731	 63.170632	 81.276682	 64.684128	209.150963	169.077896	 64.116851	 99.351736	218.411218	961.759506	367.736137	227.294236	956.682245	189.148660	222.852727	959.220875	278.442399	192.703814	1049.114363	272.504294	284.740422	1028.720691	281.283532	100.667206	1069.508036	263.725056	201.175728	510.360862	395.144327	208.466777	492.735043	176.871418	127.910579	129.116959	387.269764	136.509489	122.865201	181.234843	276.137503	  0.000000	391.333034	301.621091	  0.000000	164.179287	215.744539	  0.000000	488.360013	242.096867	  0.000000	 63.170632	 62.239795	  0.000000	357.667129	 81.276682	  0.000000	209.150963	245.941021	  0.000000	439.846523	271.858979	  0.000000	113.674959	127.910579	  0.000000	387.269764	136.509489	  0.000000	181.234843	159.187555	1465.280951	443.995786	197.546526	1458.269756	 77.754613	142.860450	1224.084181	579.792253	165.402777	1211.867157	-32.215417	146.173287	1095.759452	807.595720	220.051794	1112.061513	-272.770575
172	  1.520000	347.032502	1787.512281	319.100844	158.330716	1757.269065	374.129670	240.993254	1755.526217	180.054755	106.506601	1694.588341	267.206124	219.713248	1857.667631	285.891073	108.418913	1327.970053	513.243756	115.354330	1350.672530	547.967267	114.269859	1327.369992	563.547059	107.206013	1303.741795	528.613583	106.177463	1237.345494	596.830440	179.526383	1210.855466	562.750740	107.456221	1139.963896	698.205969	143.413732	1115.428440	675.979540	147.855208	1101.238754	699.720110	111.597194	1125.026546	720.830808	163.075253	1127.055523	824.045137	129.205709	1064.509860	791.149162	177.902456	1126.053706	889.181859	114.388763	1059.473299	889.165244	123.896338	1024.038743	859.039958	185.958774	1339.043680	-36.470455	148.981500	1333.513845	-17.471242	146.529544	1309.206399	-30.312924	182.949320	1314.271355	-50.168050	140.518841	1227.985928	-58.827351	190.301692	1195.734631	 -5.555059	155.681793	1169.112182	-170.543265	166.378069	1128.490555	-145.072513	174.437895	1115.726936	-168.845562	164.116955	1156.230552	-193.912567	235.661503	1145.583907	-287.003008	204.457103	1078.425800	-258.446748	283.717783	1136.497693	-350.559390	217.830132	1075.327369	-374.310050	221.541881	1035.088136	-347.291232	314.480147	1294.723046	278.112090	275.486804	1490.794617	279.557832	159.202747	1534.293189	443.986535	197.567887	1527.277630	 77.738033	138.471417	1554.621935	275.792743	 93.532949	1362.836223	273.012873	278.017153	1032.570027	416.571577	291.470436	1024.871804	146.011316	 98.584869	1066.761137	323.834855	102.749572	1072.261940	203.644004	204.798030	950.610654	465.000124	185.203222	779.224749	471.109614	227.842996	776.506759	475.805463	225.889891	746.199066	475.722665	183.122050	747.560821	471.276389	193.710954	521.972461	440.476037	229.831991	496.113468	349.826504	206.754129	923.356861	 89.661431	239.720252	784.056333	 84.901814	197.424807	779.813070	 86.657219	200.414889	748.707926	 86.220840	242.947700	752.623651	 84.320832	220.944240	512.108261	128.698476	240.117981	493.553946	225.060398	223.689755	447.698840	402.405998	105.305411	422.714818	442.158625	144.754461	413.422582	457.657330	137.207759	383.795850	458.775566	 97.448494	393.219760	443.666676	109.223288	126.638559	427.087717	146.599800	131.595344	347.452758	238.237161	441.938088	176.249087	157.208277	423.693930	110.983854	117.281028	430.702680	127.617030	111.004812	401.347834	126.119104	149.892987	394.342156	108.439191	116.719133	121.373160	144.002474	156.302454	124.356662	218.468469	276.138362	 57.418135	391.333375	215.746648	 51.437708	488.359122	 62.239957	 68.769130	357.667554	155.902003	 61.166330	460.663744	301.622451	 52.662150	164.179094	242.096794	 49.946313	 63.170598	 81.279596	 64.691843	209.151499	169.078196	 64.116021	 99.352020	218.414475	961.764131	367.746049	227.294366	956.682889	189.161701	222.854420	959.223510	278.453875	192.705508	1049.116227	272.515438	284.743795	1028.720915	281.291447	100.667220	1069.511539	263.739430	201.177341	510.362681	395.151271	208.467016	492.733559	176.879437	127.911544	129.116951	387.270238	136.510793	122.864911	181.235471	276.138362	  0.000000	391.333375	301.622451	  0.000000	164.179094	215.746648	  0.000000	488.359122	242.096794	  0.000000	 63.170598	 62.239957	  0.000000	357.667554	 81.279596	  0.000000	209.151499	245.942505	  0.000000	439.846248	271.859623	  0.000000	113.674846	127.911544	  0.000000	387.270238	136.510793	  0.000000	181.235471	159.202747	1465.293189	443.986535	197.567887	1458.277630	 77.738033	142.851923	1224.100480	579.790590	165.410267	1211.860280	-32.191205	146.140481	1095.782692	807.597150	220.059303	1112.004854	-272.724878
173	  1.528889	347.054936	1787.514836	319.054772	158.359185	1757.281827	374.106318	241.000158	1755.513502	180.023819	106.522733	1694.588639	267.196135	219.732512	1857.668190	285.850729	108.417528	1327.991289	513.239518	115.356029	1350.693450	547.961123	114.269852	1327.391753	563.541254	107.203552	1303.763214	528.609504	106.167700	1237.367751	596.824491	179.518549	1210.871685	562.751936	107.434043	1139.988372	698.202374	143.392152	1115.450290	675.981044	147.831988	1101.261142	699.722557	111.571774	1125.052106	720.827886	163.040113	1127.083188	824.047181	129.174554	1064.535293	791.149640	177.857260	1126.084484	889.185271	114.342706	1059.504417	889.163800	123.857178	1024.067020	859.041327	185.976508	1339.030856	-36.468076	148.997204	1333.506657	-17.471556	146.545080	1309.197508	-30.310069	182.967349	1314.256478	-50.161573	140.531878	1227.973159	-58.810367	190.311531	1195.728671	 -5.530516	155.695633	1169.079480	-170.513539	166.358883	1128.457397	-145.055962	174.446835	1115.692453	-168.806706	164.129878	1156.194025	-193.879500	235.677594	1145.524000	-286.967389	204.467805	1078.373456	-258.398960	283.737206	1136.421702	-350.519004	217.846627	1075.253379	-374.264836	221.551442	1035.019657	-347.235112	314.472155	1294.729287	278.102848	275.508418	1490.804276	279.546332	159.218213	1534.308217	443.976111	197.585837	1527.283146	 77.719931	138.478865	1554.625896	275.780450	 93.538649	1362.841515	273.005040	278.023897	1032.572895	416.574538	291.472065	1024.868870	146.019546	 98.587606	1066.766162	323.847863	102.748679	1072.264646	203.656832	204.803924	950.612658	465.008389	185.209096	779.226321	471.118372	227.847813	776.508217	475.814354	225.899551	746.215968	475.787180	183.126647	747.562100	471.285621	193.713291	521.973140	440.480951	229.833232	496.114989	349.832785	206.747170	923.355555	 89.673092	239.714271	784.054665	 84.913292	197.418501	779.811691	 86.669442	200.408459	748.706663	 86.232279	242.941564	752.622381	 84.331900	220.941586	512.107280	128.705920	240.121122	493.552889	225.066498	223.692252	447.699388	402.410350	105.308251	422.714355	442.162295	144.757492	413.422123	457.660739	137.211415	383.795399	458.777442	 97.451442	393.219156	443.669980	109.224841	126.638410	427.087381	146.600629	131.595517	347.453628	238.237533	441.937025	176.254246	157.205218	423.694285	110.991197	117.278490	430.703150	127.624631	111.001554	401.348464	126.125904	149.889856	394.343232	108.444809	116.719549	121.373036	144.003531	156.304499	124.356157	218.468704	276.139419	 57.417629	391.333708	215.748794	 51.437054	488.358266	 62.240331	 68.769432	357.667842	155.903745	 61.166058	460.662593	301.623711	 52.661134	164.178923	242.096855	 49.945928	 63.170456	 81.282085	 64.698494	209.151979	169.078689	 64.115147	 99.352319	218.418475	961.768781	367.753620	227.294990	956.683709	189.172748	222.856732	959.226245	278.463184	192.708062	1049.118143	272.524695	284.747981	1028.720882	281.297042	100.668143	1069.515404	263.752347	201.179118	510.364519	395.156868	208.466122	492.732165	176.886209	127.912735	129.116964	387.270504	136.512024	122.864597	181.236118	276.139419	  0.000000	391.333708	301.623711	  0.000000	164.178923	215.748794	  0.000000	488.358266	242.096855	  0.000000	 63.170456	 62.240331	  0.000000	357.667842	 81.282085	  0.000000	209.151979	245.944106	  0.000000	439.845987	271.860283	  0.000000	113.674690	127.912735	  0.000000	387.270504	136.512024	  0.000000	181.236118	159.218213	1465.308217	443.976111	197.585837	1458.283146	 77.719931	142.843124	1224.119718	579.788214	165.421705	1211.850915	-32.170441	146.107333	1095.809240	807.598410	220.072700	1111.948728	-272.683175
